/* XPM */
const char* X_GAME_PROFILE_xpm[] = {
"32 32 2 1",
" 	c None",
".	c #000000",
"                                ",
" ......................         ",
" .......................        ",
" ..                             ",
" ..  .....................      ",
" .. .......................     ",
" .. ...                         ",
" .. ..                          ",
" .. ..  ......................  ",
" .. ..  ......................  ",
" .. ..  ......................  ",
" .. ..  ......................  ",
" .. ..  ......................  ",
" .. ..  ......................  ",
" .. ..  ......................  ",
" .. ..  ......................  ",
" .. ..  ......................  ",
" .. ..  ......................  ",
" .. ..  .......... ...........  ",
" .. ..  ............ .........  ",
" .. ..  ...........   ........  ",
" .. ..  ............   .......  ",
" .. ..  .............   ......  ",
"    ..  ..............   .....  ",
"    ..  ...............   ....  ",
"     .  ................   ...  ",
"        .................   ..  ",
"        ..................   .. ",
"        ...................  ...",
"                          ......",
"                           .... ",
"                            ..  "};
