/* XPM */
const char *X_HOTKEY_SETTINGS[] = {
"64 64 2 1",
" 	c None",
".	c #000000",
"                                   ...                          ",
"                                 ....                           ",
"                                ....                            ",
"                    ..         ....                             ",
"                   ..        ......                             ",
"                  ...        ......                             ",
"                 ...        ......                              ",
"                 ...        .......                             ",
"                ....       ........        ...                  ",
"               ....        .........        ...                 ",
"               ....        .........         ...                ",
"              ....         ..........        ....               ",
"              ....          .........        ....               ",
"              .....         ...........      .....              ",
"              .....          ..........      .....              ",
"             ........        ...........     ......             ",
"             ........        ... .......     ......             ",
"            ...........      ... .......     ......             ",
"            ...........    .....  ......     .......            ",
"            ...........    .....  ......    ........            ",
"           .............  ......  ......    .........           ",
"           ........ ....  ......   ....    ..... ....           ",
"           ........ .... .......   ....   ...... ....           ",
"           ......   .... ......    ..... ....... .....          ",
"           ......   ...........    ............   ....          ",
"           ......   ..........      ..........    ....          ",
"           .....    ..........      ..........    ....          ",
"           .....    ..........      .........    .....          ",
"           .....    ..........       ........    .....          ",
"           .....      ........       ........   ......          ",
"            .....      .....          .....     .....           ",
"            .....      .....           ....    ......           ",
"            .....                              .....            ",
"             ...                                ....            ",
"              .   ............................   ..             ",
"                ................................                ",
"                ................................                ",
"              ....................................              ",
"              ....................................              ",
"              ..........    ........    ..........              ",
"              ..........    ........    ..........              ",
"              ..........    ........    ..........              ",
"              ..........    ........    ..........              ",
"              ..........    ........    ..........              ",
"              ..........    ........    ..........              ",
"              ..........    ........    ..........              ",
"              ..........                ..........              ",
"              ..........                ..........              ",
"              ..........                ..........              ",
"              ..........    ........    ..........              ",
"              ..........    ........    ..........              ",
"              ..........    ........    ..........              ",
"              ..........    ........    ..........              ",
"              ..........    ........    ..........              ",
"              ..........    ........    ..........              ",
"              ..........    ........    ..........              ",
"              ..........    ........    ..........              ",
"              ....................................              ",
"              ....................................              ",
"              ....................................              ",
"              ....................................              ",
"                ................................                ",
"                ................................                ",
"                  .............................                 "
};
