/* XPM */
static const char * checked_ld_xpm[] = {
"14 15 26 1",
" 	c None",
".	c #1C5180",
"+	c #B0B0A7",
"@	c #B3B3AA",
"#	c #B7B7AD",
"$	c #BCBBB1",
"%	c #C1C1B6",
"&	c #C7C6BB",
"*	c #CDCCC0",
"=	c #D2D1C5",
"-	c #D7D5C8",
";	c #DBDACC",
">	c #1C861A",
",	c #DFDDCF",
"'	c #1C8A1A",
")	c #E3E1D3",
"!	c #197A18",
"~	c #1D8C1B",
"{	c #E6E5D6",
"]	c #1A7D18",
"^	c #1B8119",
"/	c #EAE8D9",
"(	c #1B8419",
"_	c #EDEBDB",
":	c #EFEDDD",
"<	c #F1EFDF",
"............. ",
".+++@#$%&*=-. ",
".++@#$%&*=-;. ",
".+@#$%&*=>;,. ",
".@#$%&*=>',). ",
".#$!&*=>'~){. ",
".$%]^=>'~){/. ",
".%&^(>'~){/_. ",
".&*=>'~){/_:. ",
".*=-;~){/_:<. ",
".=-;,){/_:<<. ",
".-;,){/_:<<<. ",
"............. ",
"              ",
"              "};
