/* XPM */
static const char * checked_mo_xpm[] = {
"14 15 52 1",
" 	c None",
".	c #1C5180",
"+	c #FFF0CF",
"@	c #FFEDC6",
"#	c #FFE9BA",
"$	c #FEE4AC",
"%	c #FEDF9C",
"&	c #FDD98C",
"*	c #FDD889",
"=	c #FDDB95",
"-	c #FDDC97",
";	c #FCD687",
">	c #FBCA6A",
",	c #FDE3AC",
"'	c #FDE6B6",
")	c #FDDEA2",
"!	c #FBD07A",
"~	c #FFEABD",
"{	c #FEE9BC",
"]	c #F7F7F5",
"^	c #F6F6F4",
"/	c #F4F4F3",
"(	c #F8F8F7",
"_	c #FAFAF9",
":	c #21A121",
"<	c #FDE3AE",
"[	c #FBD280",
"}	c #FEECC4",
"|	c #FDE1AB",
"1	c #FBD07B",
"2	c #FEE7B5",
"3	c #FEECC7",
"4	c #FDE0A8",
"5	c #FBCE77",
"6	c #FEE3A9",
"7	c #FEEBC3",
"8	c #FBD892",
"9	c #FAC867",
"0	c #FEE0A3",
"a	c #FEE9BF",
"b	c #F9BC46",
"c	c #F9B73A",
"d	c #FCD27A",
"e	c #F8B636",
"f	c #FBCC6B",
"g	c #FCDB99",
"h	c #F8B433",
"i	c #FBC863",
"j	c #FAC55A",
"k	c #FAC55B",
"l	c #FBCC70",
"m	c #F8B330",
"............. ",
".+@#$%&*=-;>. ",
".@#$%&*=,')!. ",
".~{]^/^(_:<[. ",
".{}_(^(_::|1. ",
".23:_(_:::45. ",
".67::_:::_89. ",
".0a:::::_(9b. ",
".=,_:::_(^bc. ",
".d;(_:_(^/ce. ",
".f>!g489bceh. ",
".ijkl59bcehm. ",
"............. ",
"              ",
"              "};
