/* XPM */
static const char * unchecked2_xpm[] = {
"14 15 19 1",
" 	c None",
".	c #1C5180",
"+	c #DCDCD7",
"@	c #DEDED9",
"#	c #E0E0DB",
"$	c #E2E2DE",
"%	c #E5E5E2",
"&	c #E8E8E5",
"*	c #ECECE9",
"=	c #EFEFEC",
"-	c #F1F1EF",
";	c #F3F3F1",
">	c #F5F5F4",
",	c #F7F7F6",
"'	c #F9F9F8",
")	c #FBFBFA",
"!	c #FDFDFC",
"~	c #FEFEFE",
"{	c #FFFFFF",
"............. ",
".+++@#$%&*=-. ",
".++@#$%&*=-;. ",
".+@#$%&*=-;>. ",
".@#$%&*=-;>,. ",
".#$%&*=-;>,'. ",
".$%&*=-;>,'). ",
".%&*=-;>,')!. ",
".&*=-;>,')!~. ",
".*=-;>,')!~{. ",
".=-;>,')!~{{. ",
".-;>,')!~{{{. ",
"............. ",
"              ",
"              "};
