/* XPM */
static const char * unchecked_xpm[] = {
"16 16 5 1",
" 	c None",
".	c #808080",
"X	c Black",
"o	c #c0c0c0",
"w  c White",
"                ",
"                ",
"  ............  ",
"  .XXXXXXXXXXo  ",
"  .Xwwwwwwwwwo  ",
"  .Xwwwwwwwwwo  ",
"  .Xwwwwwwwwwo  ",
"  .Xwwwwwwwwwo  ",
"  .Xwwwwwwwwwo  ",
"  .Xwwwwwwwwwo  ",
"  .Xwwwwwwwwwo  ",
"  .Xwwwwwwwwwo  ",
"  .Xwwwwwwwwwo  ",
"  .ooooooooooo  ",
"                ",
"                "};
