/* XPM */
static const char * unchecked_d_xpm[] = {
"14 15 3 1",
" 	c None",
".	c #CAC8BB",
"+	c #FFFFFF",
"............. ",
".+++++++++++. ",
".+++++++++++. ",
".+++++++++++. ",
".+++++++++++. ",
".+++++++++++. ",
".+++++++++++. ",
".+++++++++++. ",
".+++++++++++. ",
".+++++++++++. ",
".+++++++++++. ",
".+++++++++++. ",
"............. ",
"              ",
"              "};
