/* XPM */
static const char * checked2_xpm[] = {
"14 15 20 1",
" 	c None",
".	c #1C5180",
"+	c #E2E2DD",
"@	c #E3E3DF",
"#	c #E5E5E1",
"$	c #E7E7E3",
"%	c #EAEAE6",
"&	c #ECECE9",
"*	c #EFEFEC",
"=	c #F1F1EF",
"-	c #F3F3F1",
";	c #F5F5F3",
">	c #21A121",
",	c #F7F7F6",
"'	c #F9F9F8",
")	c #FAFAF9",
"!	c #FCFCFB",
"~	c #FDFDFD",
"{	c #FEFEFE",
"]	c #FFFFFF",
"............. ",
".+++@#$%&*=-. ",
".++@#$%&*=-;. ",
".+@#$%&*=>;,. ",
".@#$%&*=>>,'. ",
".#$>&*=>>>'). ",
".$%>>=>>>')!. ",
".%&>>>>>')!~. ",
".&*=>>>')!~{. ",
".*=-;>')!~{]. ",
".=-;,')!~{]]. ",
".-;,')!~{]]]. ",
"............. ",
"              ",
"              "};
