/* XPM */
static const char * checked_d_xpm[] = {
"14 15 3 1",
" 	c None",
".	c #CAC8BB",
"+	c #FFFFFF",
"............. ",
".+++++++++++. ",
".+++++++++++. ",
".++++++++.++. ",
".+++++++..++. ",
".++.+++...++. ",
".++..+...+++. ",
".++.....++++. ",
".+++...+++++. ",
".++++.++++++. ",
".+++++++++++. ",
".+++++++++++. ",
"............. ",
"              ",
"              "};
