/* XPM */
static const char * checked_xpm[] = {
"16 16 5 1",
" 	c None",
".	c #808080",
"X	c Black",
"o	c #c0c0c0",
"w  c White",
"                ",
"                ",
"  ............  ",
"  .XXXXXXXXXXo  ",
"  .Xwwwwwwwwwo  ",
"  .XwwwwwwwXwo  ",
"  .XwwwwwwXXwo  ",
"  .XwXwwwXXXwo  ",
"  .XwXXwXXXwwo  ",
"  .XwXXXXXwwwo  ",
"  .XwwXXXwwwwo  ",
"  .XwwwXwwwwwo  ",
"  .Xwwwwwwwwwo  ",
"  .ooooooooooo  ",
"                ",
"                "};
