/* XPM */
static const char * checked_dis_xpm[] = {
"16 16 4 1",
" 	c None",
".	c #808080",
"X	c Black",
"o	c #c0c0c0",
"                ",
"                ",
"  ............  ",
"  .XXXXXXXXXXo  ",
"  .Xoooooooooo  ",
"  .Xooooooo.oo  ",
"  .Xoooooo..oo  ",
"  .Xo.ooo...oo  ",
"  .Xo..o...ooo  ",
"  .Xo.....oooo  ",
"  .Xoo...ooooo  ",
"  .Xooo.oooooo  ",
"  .Xoooooooooo  ",
"  .ooooooooooo  ",
"                ",
"                "};
