/* XPM */
static const char * unchecked_dis_xpm[] = {
"16 16 4 1",
" 	c None",
".	c #808080",
"X	c Black",
"o	c #c0c0c0",
"                ",
"                ",
"  ............  ",
"  .XXXXXXXXXXo  ",
"  .Xoooooooooo  ",
"  .Xoooooooooo  ",
"  .Xoooooooooo  ",
"  .Xoooooooooo  ",
"  .Xoooooooooo  ",
"  .Xoooooooooo  ",
"  .Xoooooooooo  ",
"  .Xoooooooooo  ",
"  .Xoooooooooo  ",
"  .ooooooooooo  ",
"                ",
"                "};
