/* XPM */
static const char * unchecked_mo_xpm[] = {
"14 15 24 1",
" 	c None",
".	c #1C5180",
"+	c #FFF0CF",
"@	c #FFEDC6",
"#	c #FFE9BA",
"$	c #FEE4AC",
"%	c #FEDF9C",
"&	c #FDD98C",
"*	c #FDD684",
"=	c #FCD37C",
"-	c #FCD074",
";	c #FBCC6B",
">	c #FBC863",
",	c #FAC55A",
"'	c #E7E7E3",
")	c #FAC254",
"!	c #FAC04E",
"~	c #F9BD48",
"{	c #F9BB43",
"]	c #F9B93E",
"^	c #F9B73A",
"/	c #F8B636",
"(	c #F8B433",
"_	c #F8B330",
"............. ",
".+@#$%&*=-;>. ",
".@#$%&*=-;>,. ",
".#$''''''',). ",
".$%''''''')!. ",
".%&'''''''!~. ",
".&*'''''''~{. ",
".*='''''''{]. ",
".=-''''''']^. ",
".-;'''''''^/. ",
".;>,)!~{]^/(. ",
".>,)!~{]^/(_. ",
"............. ",
"              ",
"              "};
